<svg aria-hidden="true" style="position: absolute; width: 0; height: 0; overflow: hidden;" version="1.1" xmlns="http://www.w3.org/2000/svg" xmlns:xlink="http://www.w3.org/1999/xlink">
<defs>
<symbol id="icon-heart-white" viewBox="0 0 27 24">
<path fill="none" stroke="#fff" style="stroke: var(--color1, #fff)" stroke-linejoin="round" stroke-linecap="round" stroke-miterlimit="4" stroke-width="2.25" d="M23.445 3.686c-0.575-0.575-1.257-1.031-2.008-1.342s-1.556-0.471-2.369-0.471c-0.813 0-1.618 0.16-2.369 0.471s-1.433 0.767-2.008 1.342l-1.192 1.192-1.192-1.192c-1.161-1.161-2.735-1.813-4.376-1.813s-3.216 0.652-4.376 1.813c-1.161 1.161-1.813 2.735-1.813 4.376s0.652 3.216 1.813 4.376l9.945 9.945 9.945-9.945c0.575-0.575 1.031-1.257 1.342-2.008s0.471-1.556 0.471-2.369-0.16-1.618-0.471-2.369c-0.311-0.751-0.767-1.433-1.342-2.008z"></path>
</symbol>
<symbol id="icon-car" viewBox="0 0 24 24">
<path d="M5.016 11.016h13.969l-1.5-4.5h-10.969zM17.484 15.984q0.609 0 1.055-0.445t0.445-1.055-0.445-1.055-1.055-0.445-1.055 0.445-0.445 1.055 0.445 1.055 1.055 0.445zM6.516 15.984q0.609 0 1.055-0.445t0.445-1.055-0.445-1.055-1.055-0.445-1.055 0.445-0.445 1.055 0.445 1.055 1.055 0.445zM18.938 6l2.063 6v8.016q0 0.422-0.281 0.703t-0.703 0.281h-1.031q-0.422 0-0.703-0.281t-0.281-0.703v-1.031h-12v1.031q0 0.422-0.281 0.703t-0.703 0.281h-1.031q-0.422 0-0.703-0.281t-0.281-0.703v-8.016l2.063-6q0.281-0.984 1.453-0.984h10.969q1.172 0 1.453 0.984z"></path>
</symbol>
<symbol id="icon-home" viewBox="0 0 32 32">
<path d="M32 19l-6-6v-9h-4v5l-6-6-16 16v1h4v10h10v-6h4v6h10v-10h4z"></path>
</symbol>
<symbol id="icon-heart" viewBox="0 0 32 32">
<path d="M23.6 2c-3.363 0-6.258 2.736-7.599 5.594-1.342-2.858-4.237-5.594-7.601-5.594-4.637 0-8.4 3.764-8.4 8.401 0 9.433 9.516 11.906 16.001 21.232 6.13-9.268 15.999-12.1 15.999-21.232 0-4.637-3.763-8.401-8.4-8.401z"></path>
</symbol>

<symbol id="icon-active-heart" viewBox="0 0 24 24">
<path fill="#3470ff" style="fill: var(--color1, #3470ff); stroke: var(--color1, #3470ff)" stroke="#3470ff" stroke-linejoin="round" stroke-linecap="round" stroke-miterlimit="4" stroke-width="1.3333" d="M20.84 4.61c-0.511-0.511-1.117-0.916-1.785-1.193s-1.383-0.419-2.105-0.419c-0.723 0-1.438 0.142-2.105 0.419s-1.274 0.682-1.785 1.193l-1.060 1.060-1.060-1.060c-1.032-1.032-2.431-1.611-3.89-1.611s-2.858 0.58-3.89 1.611c-1.032 1.032-1.611 2.431-1.611 3.89s0.58 2.858 1.611 3.89l8.84 8.84 8.84-8.84c0.511-0.511 0.916-1.117 1.193-1.785s0.419-1.383 0.419-2.105c0-0.722-0.142-1.438-0.419-2.105s-0.682-1.274-1.193-1.785z"></path>
</symbol>

<symbol id="icon-logo" viewBox="0 0 32 32">
<path d="M12.522 10.174c-0.723 0.057-1.184 0.146-2.478 0.47-1.124 0.284-1.148 0.303-0.117 0.091 1.492-0.308 2.121-0.397 3.052-0.436 0.543-0.021 0.848-0.021 1.187 0.003 0.981 0.063 1.417 0.193 2.4 0.72 0.814 0.438 1.531 0.79 1.69 0.83 0.154 0.039 0.154 0.070-0.005 0.073-0.060 0-0.13 0.013-0.159 0.026-0.037 0.016 0.016 0.021 0.157 0.010 0.788-0.047 1.012-0.047 1.304 0.010 0.357 0.068 0.689 0.17 1.111 0.342 0.488 0.201 1.38 0.673 1.38 0.733 0 0.123-0.715 0.157-1.179 0.057-0.209-0.044-0.363-0.107-0.835-0.337-0.321-0.151-0.712-0.334-0.869-0.402-0.277-0.12-0.837-0.31-1.030-0.352-0.050-0.010-0.102-0.029-0.117-0.039-0.013-0.010-0.078-0.026-0.143-0.037-0.073-0.010 0.008 0.026 0.222 0.097 0.347 0.115 0.754 0.279 0.738 0.295-0.005 0.005-0.128-0.008-0.269-0.026-0.428-0.057-0.629-0.073-0.6-0.044 0.042 0.039 0.848 0.436 1.122 0.548 0.136 0.057 0.381 0.133 0.543 0.17 0.579 0.13 0.91 0.196 0.942 0.183 0.018-0.008 0.125 0.010 0.24 0.039 0.297 0.073 0.509 0.089 0.832 0.055 0.634-0.063 0.623-0.125-0.11-0.618-0.963-0.647-1.37-0.78-2.815-0.931l-0.37-0.039-0.394-0.196c-1.422-0.712-2.303-1.083-2.807-1.174-0.634-0.115-1.946-0.175-2.622-0.12z"></path>
<path d="M11.961 10.461c-0.738 0.078-1.612 0.253-1.904 0.378-0.094 0.042-0.099 0.050-0.052 0.068 0.063 0.029 1.020 0.258 1.064 0.258 0.018 0-0.086-0.047-0.23-0.102s-0.303-0.12-0.352-0.146l-0.091-0.047 0.47-0.099c0.788-0.167 0.991-0.19 1.552-0.193 0.561 0 0.73 0.026 1.124 0.17 0.36 0.13 0.871 0.443 1.37 0.837 0.107 0.086 0.203 0.151 0.211 0.146 0.005-0.008-0.104-0.133-0.243-0.279-0.673-0.699-1.419-1.049-2.225-1.041-0.138 0.003-0.449 0.023-0.694 0.050z"></path>
<path d="M7.735 10.857c-0.128 0.008-0.292 0.037-0.365 0.057-0.070 0.023-0.162 0.042-0.198 0.042-0.057 0-0.083 0.031-0.188 0.23-0.451 0.856-0.506 1.578-0.149 1.954 0.044 0.047 0.086 0.086 0.094 0.086 0.005 0-0.023-0.068-0.065-0.151-0.172-0.342-0.209-0.736-0.094-1.036 0.081-0.219 0.29-0.623 0.37-0.72 0.112-0.13 0.496-0.232 0.887-0.232 0.373 0 2.481 0.258 3.386 0.417 1.518 0.263 2.194 0.368 2.789 0.43 0.509 0.052 0.66 0.050 1.169-0.016 0.736-0.094 1.32-0.039 1.73 0.167 0.287 0.143 1.547 0.85 2.030 1.137 0.261 0.157 0.524 0.3 0.584 0.318 0.115 0.031 0.128 0.076 0.023 0.076-0.034 0-0.081 0.023-0.107 0.052-0.044 0.050-0.047 0.068-0.016 0.177 0.060 0.23 0.334 0.608 0.61 0.848 0.162 0.141 0.279 0.227 0.305 0.227 0.008 0-0.117-0.133-0.277-0.295-0.394-0.399-0.467-0.509-0.467-0.71 0-0.214 0.034-0.23 0.43-0.209 0.164 0.008 0.376 0.023 0.47 0.037 0.318 0.044 1.148 0.063 1.432 0.031 0.149-0.016 0.274-0.026 0.279-0.021 0.013 0.013-0.042 0.493-0.068 0.595-0.023 0.081-0.047 0.104-0.151 0.149-0.107 0.047-0.882 0.3-1.244 0.407-0.222 0.065-0.042 0.044 0.3-0.034 0.678-0.159 1.244-0.337 1.307-0.41 0.029-0.034 0.023-0.050-0.023-0.086-0.057-0.042-0.057-0.044-0.029-0.363 0.026-0.263 0.042-0.326 0.081-0.347 0.104-0.055 0.016-0.284-0.146-0.368-0.055-0.029-0.055-0.026 0.005 0.037 0.076 0.083 0.076 0.167 0 0.19-0.115 0.034-1.007 0.044-1.357 0.016-0.785-0.068-1.281-0.193-1.873-0.475-0.245-0.117-1.137-0.605-1.643-0.9-0.222-0.13-0.543-0.253-0.861-0.329-0.198-0.047-0.347-0.055-1.435-0.073-1.651-0.026-2.1-0.073-3.47-0.365-0.923-0.198-1.732-0.35-2.251-0.425-0.227-0.034-0.407-0.065-0.399-0.070 0.005-0.008-0.050-0.013-0.123-0.016-0.076-0.003-0.342-0.013-0.592-0.026s-0.561-0.016-0.691-0.005z"></path>
<path d="M9.438 11.494c-0.034 0.034-0.023 0.23 0.021 0.378 0.128 0.43 0.451 0.853 0.871 1.137 0.347 0.235 0.689 0.36 1.435 0.53 0.493 0.11 0.71 0.162 1.458 0.342 0.477 0.115 0.608 0.133 0.25 0.034-1.017-0.282-2.108-0.626-2.622-0.832-0.558-0.222-0.71-0.334-1.023-0.77-0.201-0.279-0.318-0.524-0.297-0.613 0.013-0.055 0.031-0.065 0.115-0.065 0.094 0 1.672 0.256 2.99 0.485 1.070 0.185 0.931 0.146-0.78-0.224-1.479-0.318-2.358-0.467-2.418-0.402z"></path>
<path d="M7.5 11.538c-0.256 0.104-0.415 0.269-0.563 0.579-0.133 0.282-0.154 0.381-0.031 0.159 0.206-0.381 0.498-0.61 0.806-0.637 0.323-0.026 0.553 0.104 0.78 0.438 0.196 0.292 0.29 0.561 0.412 1.179l0.107 0.54 0.104 0.016c0.060 0.008 0.43 0.055 0.824 0.107 0.91 0.117 3.871 0.519 4.203 0.571 0.138 0.021 0.274 0.039 0.3 0.037 0.060-0.003-0.256-0.057-3.070-0.522l-2.236-0.37-0.083-0.303c-0.047-0.167-0.125-0.41-0.17-0.537-0.047-0.13-0.104-0.305-0.13-0.391-0.112-0.394-0.331-0.689-0.605-0.817-0.175-0.081-0.509-0.107-0.647-0.050z"></path>
<path d="M15.863 12.133c-0.423 0.083-0.832 0.462-1.023 0.947-0.104 0.266-0.091 0.29 0.026 0.052 0.284-0.566 0.762-0.871 1.364-0.871 0.386 0 0.663 0.117 0.947 0.404 0.193 0.19 0.373 0.498 0.47 0.79 0.057 0.177 0.076 0.162 0.029-0.023-0.143-0.545-0.433-0.934-0.856-1.148-0.29-0.146-0.673-0.209-0.957-0.151z"></path>
<path d="M17.799 14.896c0.008 0.060 0.029 0.123 0.050 0.136 0.039 0.029 2.134 0.003 2.447-0.029 0.157-0.016 0.099-0.021-0.3-0.023-0.274-0.003-0.683-0.018-0.913-0.034-0.433-0.026-1.171-0.112-1.252-0.143-0.042-0.018-0.044-0.008-0.031 0.094z"></path>
</symbol>
</defs>
</svg>
